<mxfile host="app.diagrams.net" agent="Mozilla/5.0 (Windows NT 10.0; Win64; x64) AppleWebKit/537.36 (KHTML, like Gecko) Chrome/138.0.0.0 Safari/537.36" version="27.2.0">
  <diagram name="Trang-1" id="mN_oPqR2clKj8hGf9dE3">
    <mxGraphModel dx="1138" dy="408" grid="1" gridSize="10" guides="1" tooltips="1" connect="1" arrows="1" fold="1" page="1" pageScale="1" pageWidth="1169" pageHeight="1400" math="0" shadow="0">
      <root>
        <mxCell id="0" />
        <mxCell id="1" parent="0" />
        <mxCell id="2" value="Người dùng" style="swimlane;fontStyle=1;align=center;verticalAlign=top;childLayout=stackLayout;horizontal=1;startSize=26;horizontalStack=0;resizeParent=1;resizeParentMax=0;resizeLast=0;collapsible=1;marginBottom=0;whiteSpace=wrap;html=1;fontFamily=Arial;fontSize=12;" parent="1" vertex="1">
          <mxGeometry x="40" y="40" width="280" height="1320" as="geometry" />
        </mxCell>
        <mxCell id="3" value="" style="ellipse;html=1;shape=startState;fillColor=#000000;strokeColor=#000000;" parent="2" vertex="1">
          <mxGeometry x="125" y="60" width="30" height="30" as="geometry" />
        </mxCell>
        <mxCell id="4" value="Truy cập chức năng Upload File" style="rounded=1;whiteSpace=wrap;html=1;arcSize=40;fillColor=#FFE6CC;strokeColor=#D79B00;verticalAlign=middle;fontFamily=Arial;fontSize=12;" parent="2" vertex="1">
          <mxGeometry x="70" y="130" width="180" height="60" as="geometry" />
        </mxCell>
        <mxCell id="5" value="Chọn file, nhập mô tả &amp;amp; Xác nhận tải lên" style="rounded=1;whiteSpace=wrap;html=1;arcSize=40;fillColor=#FFE6CC;strokeColor=#D79B00;verticalAlign=middle;fontFamily=Arial;fontSize=12;" parent="2" vertex="1">
          <mxGeometry x="70" y="490" width="180" height="70" as="geometry" />
        </mxCell>
        <mxCell id="6" value="" style="ellipse;html=1;shape=endState;fillColor=#000000;strokeColor=#000000;" parent="2" vertex="1">
          <mxGeometry x="125" y="1250" width="30" height="30" as="geometry" />
        </mxCell>
        <mxCell id="7" value="Hệ thống UniPlan" style="swimlane;fontStyle=1;align=center;verticalAlign=top;childLayout=stackLayout;horizontal=1;startSize=26;horizontalStack=0;resizeParent=1;resizeParentMax=0;resizeLast=0;collapsible=1;marginBottom=0;whiteSpace=wrap;html=1;fontFamily=Arial;fontSize=12;" parent="1" vertex="1">
          <mxGeometry x="320" y="40" width="600" height="1320" as="geometry" />
        </mxCell>
        <mxCell id="8" value="Hiển thị giao diện Upload File" style="rounded=1;whiteSpace=wrap;html=1;arcSize=40;fillColor=#D9E8FB;strokeColor=#6C8EBF;verticalAlign=middle;fontFamily=Arial;fontSize=12;" parent="7" vertex="1">
          <mxGeometry x="230" y="220" width="180" height="60" as="geometry" />
        </mxCell>
        <mxCell id="9" value="Kiểm tra quyền upload" style="rhombus;whiteSpace=wrap;html=1;fillColor=#D9E8FB;strokeColor=#6C8EBF;verticalAlign=middle;fontFamily=Arial;fontSize=12;" parent="7" vertex="1">
          <mxGeometry x="225" y="485" width="190" height="80" as="geometry" />
        </mxCell>
        <mxCell id="10" value="Kiểm tra định dạng &amp;amp; dung lượng" style="rhombus;whiteSpace=wrap;html=1;fillColor=#D9E8FB;strokeColor=#6C8EBF;verticalAlign=middle;fontFamily=Arial;fontSize=12;" parent="7" vertex="1">
          <mxGeometry x="225" y="630" width="190" height="80" as="geometry" />
        </mxCell>
        <mxCell id="11" value="Lưu file vào hệ thống" style="rhombus;whiteSpace=wrap;html=1;fillColor=#D9E8FB;strokeColor=#6C8EBF;verticalAlign=middle;fontFamily=Arial;fontSize=12;" parent="7" vertex="1">
          <mxGeometry x="225" y="780" width="190" height="80" as="geometry" />
        </mxCell>
        <mxCell id="12" value="Cập nhật CSDL &amp;amp; Thông báo thành công" style="rounded=1;whiteSpace=wrap;html=1;arcSize=40;fillColor=#D9E8FB;strokeColor=#6C8EBF;verticalAlign=middle;fontFamily=Arial;fontSize=12;" parent="7" vertex="1">
          <mxGeometry x="230" y="930" width="180" height="70" as="geometry" />
        </mxCell>
        <mxCell id="13" value="Cập nhật danh sách file của nhóm" style="rounded=1;whiteSpace=wrap;html=1;arcSize=40;fillColor=#D9E8FB;strokeColor=#6C8EBF;verticalAlign=middle;fontFamily=Arial;fontSize=12;" parent="7" vertex="1">
          <mxGeometry x="230" y="1070" width="180" height="60" as="geometry" />
        </mxCell>
        <mxCell id="14" value="Hiển thị thông báo &#39;Không có quyền&#39;" style="rounded=1;whiteSpace=wrap;html=1;arcSize=40;fillColor=#F8CECC;strokeColor=#B85450;verticalAlign=middle;fontFamily=Arial;fontSize=12;" parent="7" vertex="1">
          <mxGeometry x="430" y="495" width="180" height="60" as="geometry" />
        </mxCell>
        <mxCell id="15" value="Hiển thị lỗi định dạng/dung lượng" style="rounded=1;whiteSpace=wrap;html=1;arcSize=40;fillColor=#F8CECC;strokeColor=#B85450;verticalAlign=middle;fontFamily=Arial;fontSize=12;" parent="7" vertex="1">
          <mxGeometry x="430" y="640" width="180" height="60" as="geometry" />
        </mxCell>
        <mxCell id="16" value="Hiển thị lỗi &#39;Lưu trữ thất bại&#39;" style="rounded=1;whiteSpace=wrap;html=1;arcSize=40;fillColor=#F8CECC;strokeColor=#B85450;verticalAlign=middle;fontFamily=Arial;fontSize=12;" parent="7" vertex="1">
          <mxGeometry x="430" y="790" width="180" height="60" as="geometry" />
        </mxCell>
        <mxCell id="17" value="" style="edgeStyle=orthogonalEdgeStyle;endArrow=classic;html=1;rounded=0;" parent="1" source="3" target="4" edge="1">
          <mxGeometry width="50" height="50" relative="1" as="geometry">
            <mxPoint x="140" y="90" as="sourcePoint" />
            <mxPoint x="140" y="130" as="targetPoint" />
          </mxGeometry>
        </mxCell>
        <mxCell id="18" value="" style="edgeStyle=orthogonalEdgeStyle;endArrow=classic;html=1;rounded=0;" parent="1" source="4" target="8" edge="1">
          <mxGeometry width="50" height="50" relative="1" as="geometry">
            <mxPoint x="160" y="190" as="sourcePoint" />
            <mxPoint x="520" y="250" as="targetPoint" />
          </mxGeometry>
        </mxCell>
        <mxCell id="19" value="" style="edgeStyle=orthogonalEdgeStyle;endArrow=classic;html=1;rounded=0;" parent="1" source="8" target="5" edge="1">
          <mxGeometry width="50" height="50" relative="1" as="geometry">
            <mxPoint x="520" y="280" as="sourcePoint" />
            <mxPoint x="160" y="525" as="targetPoint" />
          </mxGeometry>
        </mxCell>
        <mxCell id="20" value="" style="edgeStyle=orthogonalEdgeStyle;endArrow=classic;html=1;rounded=0;" parent="1" source="5" target="9" edge="1">
          <mxGeometry width="50" height="50" relative="1" as="geometry">
            <mxPoint x="160" y="560" as="sourcePoint" />
            <mxPoint x="520" y="525" as="targetPoint" />
          </mxGeometry>
        </mxCell>
        <mxCell id="21" value="Có quyền" style="edgeStyle=orthogonalEdgeStyle;endArrow=classic;html=1;rounded=0;fontSize=11;labelBackgroundColor=#FFFFFF;" parent="1" source="9" target="10" edge="1">
          <mxGeometry width="50" height="50" relative="1" as="geometry">
            <mxPoint x="520" y="565" as="sourcePoint" />
            <mxPoint x="520" y="630" as="targetPoint" />
          </mxGeometry>
        </mxCell>
        <mxCell id="22" value="Không có quyền" style="edgeStyle=orthogonalEdgeStyle;endArrow=classic;html=1;rounded=0;fontSize=11;labelBackgroundColor=#FFFFFF;" parent="1" source="9" target="14" edge="1">
          <mxGeometry width="50" height="50" relative="1" as="geometry">
            <mxPoint x="415" y="525" as="sourcePoint" />
            <mxPoint x="430" y="525" as="targetPoint" />
          </mxGeometry>
        </mxCell>
        <mxCell id="23" value="" style="edgeStyle=orthogonalEdgeStyle;endArrow=classic;html=1;rounded=0;entryX=0.5;entryY=1;entryDx=0;entryDy=0;" parent="1" source="14" target="5" edge="1">
          <mxGeometry width="50" height="50" relative="1" as="geometry">
            <mxPoint x="520" y="555" as="sourcePoint" />
            <mxPoint x="160" y="560" as="targetPoint" />
            <Array as="points">
              <mxPoint x="840" y="510" />
              <mxPoint x="520" y="510" />
              <mxPoint x="520" y="630" />
              <mxPoint x="200" y="630" />
            </Array>
          </mxGeometry>
        </mxCell>
        <mxCell id="24" value="Hợp lệ" style="edgeStyle=orthogonalEdgeStyle;endArrow=classic;html=1;rounded=0;fontSize=11;labelBackgroundColor=#FFFFFF;" parent="1" source="10" target="11" edge="1">
          <mxGeometry width="50" height="50" relative="1" as="geometry">
            <mxPoint x="520" y="710" as="sourcePoint" />
            <mxPoint x="520" y="780" as="targetPoint" />
          </mxGeometry>
        </mxCell>
        <mxCell id="25" value="Không hợp lệ" style="edgeStyle=orthogonalEdgeStyle;endArrow=classic;html=1;rounded=0;fontSize=11;labelBackgroundColor=#FFFFFF;" parent="1" source="10" target="15" edge="1">
          <mxGeometry width="50" height="50" relative="1" as="geometry">
            <mxPoint x="415" y="670" as="sourcePoint" />
            <mxPoint x="430" y="670" as="targetPoint" />
          </mxGeometry>
        </mxCell>
        <mxCell id="26" value="" style="edgeStyle=orthogonalEdgeStyle;endArrow=classic;html=1;rounded=0;entryX=0.5;entryY=1;entryDx=0;entryDy=0;" parent="1" source="15" target="5" edge="1">
          <mxGeometry width="50" height="50" relative="1" as="geometry">
            <mxPoint x="520" y="700" as="sourcePoint" />
            <mxPoint x="160" y="560" as="targetPoint" />
            <Array as="points">
              <mxPoint x="970" y="710" />
              <mxPoint x="970" y="460" />
              <mxPoint x="460" y="460" />
              <mxPoint x="460" y="600" />
            </Array>
          </mxGeometry>
        </mxCell>
        <mxCell id="27" value="Lưu thành công" style="edgeStyle=orthogonalEdgeStyle;endArrow=classic;html=1;rounded=0;fontSize=11;labelBackgroundColor=#FFFFFF;" parent="1" source="11" target="12" edge="1">
          <mxGeometry width="50" height="50" relative="1" as="geometry">
            <mxPoint x="520" y="860" as="sourcePoint" />
            <mxPoint x="520" y="930" as="targetPoint" />
          </mxGeometry>
        </mxCell>
        <mxCell id="28" value="Lỗi lưu trữ" style="edgeStyle=orthogonalEdgeStyle;endArrow=classic;html=1;rounded=0;fontSize=11;labelBackgroundColor=#FFFFFF;" parent="1" source="11" target="16" edge="1">
          <mxGeometry width="50" height="50" relative="1" as="geometry">
            <mxPoint x="415" y="820" as="sourcePoint" />
            <mxPoint x="430" y="820" as="targetPoint" />
          </mxGeometry>
        </mxCell>
        <mxCell id="29" value="" style="edgeStyle=orthogonalEdgeStyle;endArrow=classic;html=1;rounded=0;" parent="1" source="12" target="13" edge="1">
          <mxGeometry width="50" height="50" relative="1" as="geometry">
            <mxPoint x="520" y="1000" as="sourcePoint" />
            <mxPoint x="520" y="1070" as="targetPoint" />
          </mxGeometry>
        </mxCell>
        <mxCell id="30" value="" style="edgeStyle=orthogonalEdgeStyle;endArrow=classic;html=1;rounded=0;" parent="1" source="13" target="6" edge="1">
          <mxGeometry width="50" height="50" relative="1" as="geometry">
            <mxPoint x="520" y="1130" as="sourcePoint" />
            <mxPoint x="140" y="1265" as="targetPoint" />
            <Array as="points">
              <mxPoint x="520" y="1265" />
            </Array>
          </mxGeometry>
        </mxCell>
        <mxCell id="31" value="" style="edgeStyle=orthogonalEdgeStyle;endArrow=classic;html=1;rounded=0;" parent="1" source="16" target="6" edge="1">
          <mxGeometry width="50" height="50" relative="1" as="geometry">
            <mxPoint x="520" y="850" as="sourcePoint" />
            <mxPoint x="140" y="1265" as="targetPoint" />
            <Array as="points">
              <mxPoint x="520" y="1265" />
            </Array>
          </mxGeometry>
        </mxCell>
      </root>
    </mxGraphModel>
  </diagram>
</mxfile>
